# xmcd CD database file
#
# Track frame offsets:
#	150
#	21940
#	45812
#	59275
#	79000
#	87635
#	101465
#	126135
#	148490
#	171405
#	181255
#	201640
#	223345
#	246182
#
# Disc length: 3483 seconds
#
# Revision: 0
# Processed by: cddbd v1.4PL0 Copyright (c) Steve Scherf et al.
# Submitted via: CDex 1.50Beta7
#
DISCID=d20d990e
DTITLE=Hasan Cihat Orter - Kadin'in Senfonileri
DYEAR=1900
DGENRE=New Age
TTITLE0=Kadin
TTITLE1=Akdenizli Kadin
TTITLE2=Kutlama
TTITLE3=Yakaris
TTITLE4=Bes Cayi (Fug)
TTITLE5=Yagmur
TTITLE6=Huzun
TTITLE7=Rengarenk
TTITLE8=Kadinin Koncertosu
TTITLE9=Pazartesi Sabahi
TTITLE10=Her Seye Ragmen
TTITLE11=Muhabbet
TTITLE12=Ninni Bebek
TTITLE13=Umut
EXTD=
EXTT0=
EXTT1=
EXTT2=
EXTT3=
EXTT4=
EXTT5=
EXTT6=
EXTT7=
EXTT8=
EXTT9=
EXTT10=
EXTT11=
EXTT12=
EXTT13=
PLAYORDER=
